<svg width="153" height="32" viewBox="0 0 153 32" fill="none" xmlns="http://www.w3.org/2000/svg">
<path fill-rule="evenodd" clip-rule="evenodd" d="M1.06665 30.9338H30.9325V1.06844H1.06665V30.9338Z" fill="#FEE600"/>
<path fill-rule="evenodd" clip-rule="evenodd" d="M1.06664 30.9334H30.9324V1.06802H1.06664V30.9334ZM0 32H32V0H0V32Z" fill="black"/>
<path fill-rule="evenodd" clip-rule="evenodd" d="M16.0003 19.6484L6.80917 28.8381L3.16245 25.196L12.3545 16.003L10.437 14.0842V10.2957L9.10533 8.96267V12.2666L7.94621 13.4262L3.28623 8.7648L2.13354 9.91703C2.14183 9.0478 2.31531 6.53214 4.44904 4.43476C6.75165 2.21958 9.23832 3.21765 10.0887 4.06893L14.7464 8.72799L13.5582 9.91473L16.0003 12.3577L18.4419 9.91473L17.2542 8.72799L21.911 4.06893C22.7613 3.21765 25.248 2.21958 27.5506 4.43476C29.6848 6.53214 29.8583 9.0478 29.867 9.91703L28.7143 8.7648L24.0539 13.4262L22.8952 12.2666V8.96267L21.5626 10.2957V14.0842L19.6452 16.003L28.8376 25.196L25.1914 28.8381L16.0003 19.6484Z" fill="black"/>
<g clip-path="url(#clip0_8_4589)">
<path fill-rule="evenodd" clip-rule="evenodd" d="M143.631 12.8098H146.721V9.33389H149.563V12.8098H152.653V4.1127H149.563V7.17389H146.721V4.1127H143.631V12.8098ZM124.91 6.59764C125.561 6.165 126.445 5.85801 127.206 5.85801C127.594 5.85801 128.441 5.91416 128.441 6.65288C128.441 7.37226 127.698 7.38975 127.397 7.38975H125.88V9.27958H127.222C127.665 9.27958 128.494 9.3164 128.494 10.0188C128.494 10.306 128.319 10.8666 127.239 10.8666C126.162 10.8666 125.474 10.5766 124.572 10.0362L123.779 12.0899C125.474 13.0473 127.01 13.137 127.717 13.137C131.249 13.137 131.691 11.1179 131.691 10.4528C131.691 9.53318 131.144 8.59655 129.907 8.30751V8.27207C130.684 7.92964 131.178 7.17389 131.178 6.23772C131.178 4.20245 129.007 3.78868 127.681 3.78868C126.445 3.78868 125.014 4.14814 124.08 4.65213L124.91 6.59764ZM118.221 2.9777C119.618 2.9777 121.065 2.43828 121.7 0.959927L119.688 0.206021C119.441 1.21491 118.576 1.26692 118.221 1.26692C117.868 1.26692 117.004 1.21491 116.758 0.206021L114.745 0.959927C115.378 2.43828 116.828 2.9777 118.221 2.9777ZM113.403 4.1127V12.8098H116.403L119.458 8.02123V12.8098H122.549V4.1127H119.582L116.49 8.77559V4.1127H113.403ZM92.9157 10.9379V6.11161C91.8737 6.09274 90.8108 6.86828 90.8108 8.52475C90.8108 10.1817 91.8737 10.9549 92.9157 10.9379ZM95.6171 6.11161V10.9379C96.6596 10.9549 97.7184 10.1817 97.7184 8.52475C97.7184 6.86828 96.6596 6.09274 95.6171 6.11161ZM92.7202 16.5945V12.94C90.883 12.9571 87.844 12.2165 87.844 8.45203C87.844 4.70782 90.8671 3.96864 92.7202 3.98567V0.206021H95.8104V3.98567C97.6667 3.96864 100.685 4.70782 100.685 8.45203C100.685 12.2165 97.6481 12.9571 95.8104 12.94V16.5945H92.7202ZM79.0168 10.9379V6.11161C77.9748 6.09274 76.9146 6.86828 76.9146 8.52475C76.9146 10.1817 77.9748 10.9549 79.0168 10.9379ZM81.7205 6.11161V10.9379C82.7602 10.9549 83.8203 10.1817 83.8203 8.52475C83.8203 6.86828 82.7602 6.09274 81.7205 6.11161ZM78.8221 16.5945V12.94C76.984 12.9571 73.9473 12.2165 73.9473 8.45203C73.9473 4.70782 76.9677 3.96864 78.8221 3.98567V0.206021H81.9123V3.98567C83.7672 3.96864 86.7857 4.70782 86.7857 8.45203C86.7857 12.2165 83.7505 12.9571 81.9123 12.94V16.5945H78.8221ZM68.1539 2.9777C69.5507 2.9777 70.9987 2.43828 71.6329 0.959927L69.6206 0.206021C69.3724 1.21491 68.5069 1.26692 68.1539 1.26692C67.801 1.26692 66.9355 1.21491 66.6868 0.206021L64.6745 0.959927C65.311 2.43828 66.7595 2.9777 68.1539 2.9777ZM63.3345 4.1127V12.8098H66.3344L69.3906 8.02123V12.8098H72.4821V4.1127H69.5144L66.4247 8.77559V4.1127H63.3345ZM44.4644 2.77841V5.67805H45.5958C47.1327 5.67805 47.2919 4.75891 47.2919 4.2204C47.2919 3.58939 47.0796 2.77841 45.5958 2.77841H44.6059H44.4644ZM41.1461 12.8098V0.00672913H46.3552C49.8709 0.00672913 50.8593 2.49029 50.8593 4.2204C50.8593 5.96617 49.8537 8.45203 46.3552 8.45203H44.4644V12.8098H41.1461ZM111.477 4.09844V12.8098H108.395V11.8418H108.362C107.82 12.709 106.753 13.0993 105.737 13.0993C103.165 13.0993 101.353 10.943 101.353 8.44697C101.353 5.95006 103.13 3.81031 105.705 3.81031C106.703 3.81031 107.752 4.18358 108.395 4.94761V4.09844H111.477ZM106.517 6.49317C105.264 6.49317 104.536 7.39389 104.536 8.46216C104.536 9.56586 105.264 10.415 106.517 10.415C107.77 10.415 108.498 9.56586 108.498 8.46216C108.498 7.39389 107.77 6.49317 106.517 6.49317ZM61.4084 4.09844V12.8098H58.327V11.8418H58.2931C57.7516 12.709 56.6854 13.0993 55.668 13.0993C53.0961 13.0993 51.2844 10.943 51.2844 8.44697C51.2844 5.95006 53.063 3.81031 55.6354 3.81031C56.6341 3.81031 57.6841 4.18358 58.327 4.94761V4.09844H61.4084ZM56.4484 6.49317C55.1954 6.49317 54.4668 7.39389 54.4668 8.46216C54.4668 9.56586 55.1954 10.415 56.4484 10.415C57.7004 10.415 58.4281 9.56586 58.4281 8.46216C58.4281 7.39389 57.7004 6.49317 56.4484 6.49317ZM142.11 8.83036V9.15439H135.625C135.625 10.4114 136.288 11.0898 137.554 11.0898C138.218 11.0898 138.69 10.8698 139.028 10.2917H141.992C141.499 12.3467 139.553 13.2815 137.573 13.2815C134.697 13.2815 132.545 11.6508 132.545 8.64304C132.545 5.73972 134.526 3.99258 137.353 3.99258C140.365 3.99258 142.11 5.85893 142.11 8.83036ZM135.677 7.37134H139.247C139.098 6.53919 138.335 5.99701 137.505 5.99701C136.608 5.99701 135.862 6.47061 135.677 7.37134ZM46.08 26.6921H45.1274L44.6567 29.4081H45.5632C47.5913 29.4081 47.9862 28.8415 48.1025 28.1134C48.2325 27.3121 48.0737 26.6921 46.08 26.6921ZM51.6583 28.1507C51.5172 29.0104 51.2332 29.8799 50.6037 30.51C49.2167 31.8907 47.1243 32.0017 45.7969 32.0067H40.6064L42.811 19.2042H51.6448L51.2318 21.725H45.89L45.4775 24.2799H47.0247C48.1668 24.2799 49.6316 24.4313 50.675 25.3132C51.4432 25.9626 51.8525 26.942 51.6583 28.1507ZM60.9493 29.7818H56.0745L54.7606 32.0067H51.0051L58.3978 19.2042H62.2609L65.2328 32.0067H61.4596L60.9493 29.7818ZM60.4218 27.2361L59.6638 23.161H59.627L57.4783 27.2361H60.4218ZM84.9815 19.2042H81.4141L79.2598 32.0054L82.7965 32.0058L83.7333 26.4546H83.7691L87.4049 32.0067L91.9911 32.0058L87.2173 25.2648L93.6574 19.2042H89.2692L84.1015 24.4838H84.0624L84.9815 19.2042ZM71.292 19.2042L70.5052 23.9766H75.2231L76.0085 19.2042H79.446L77.355 32.0067H73.9297L74.8176 26.5025H70.1025L69.2108 32.0067H65.7584L67.8671 19.2042H71.292Z" fill="black"/>
</g>
<defs>
<clipPath id="clip0_8_4589">
<rect width="113" height="32" fill="white" transform="translate(40)"/>
</clipPath>
</defs>
</svg>
