<svg width="14" height="14" viewBox="0 0 14 14" fill="none" xmlns="http://www.w3.org/2000/svg">
<path fill-rule="evenodd" clip-rule="evenodd" d="M3.83333 2.00002C2.45674 2.00002 1.33333 3.12451 1.33333 4.52085C1.33333 5.40772 1.85367 6.32238 2.67469 7.27245C4.01236 8.8204 5.5613 10.438 7 11.7658C8.4387 10.438 9.98764 8.8204 11.3253 7.27245C12.1463 6.32238 12.6667 5.40772 12.6667 4.52085C12.6667 3.12451 11.5433 2.00002 10.1667 2.00002C9.57187 2.00002 9.02677 2.20865 8.59715 2.55858C8.14382 2.92783 7.90558 3.1931 7.77318 3.35567C7.73902 3.39762 7.7102 3.43482 7.68383 3.4693C7.67924 3.47531 7.67429 3.4818 7.66911 3.4886C7.64845 3.51571 7.62399 3.54781 7.60301 3.57394C7.58036 3.60214 7.52914 3.6655 7.45998 3.72325C7.39028 3.78145 7.22372 3.90068 6.9795 3.89588C6.73823 3.89113 6.57792 3.76804 6.51314 3.71121C6.44737 3.65353 6.3984 3.59088 6.37666 3.56291C6.34205 3.51841 6.32362 3.49319 6.30622 3.46939C6.28384 3.43878 6.26319 3.41053 6.21206 3.34661C6.08329 3.18563 5.85006 2.92284 5.40285 2.55858C4.97323 2.20865 4.42813 2.00002 3.83333 2.00002ZM0 4.52085C0 2.39638 1.71213 0.666687 3.83333 0.666687C4.74678 0.666687 5.58679 0.98874 6.2449 1.52479C6.57567 1.7942 6.81746 2.02579 6.99811 2.21926C7.17992 2.02672 7.42305 1.79525 7.7551 1.52479C8.41321 0.98874 9.25322 0.666687 10.1667 0.666687C12.2879 0.666687 14 2.39638 14 4.52085C14 5.90982 13.2027 7.13921 12.3341 8.14425C10.8961 9.80834 9.21641 11.5547 7.66966 12.9605C7.28974 13.3058 6.71026 13.3058 6.33034 12.9605C4.78359 11.5547 3.1039 9.80834 1.66585 8.14425C0.797334 7.13921 0 5.90982 0 4.52085Z" fill="#2B2D33"/>
</svg>
